<?xml version="1.0" encoding="UTF-8"?>
<svg id="Layer_1" xmlns="http://www.w3.org/2000/svg" version="1.1" viewBox="0 0 156.75 30.52">
  <!-- Generator: Adobe Illustrator 29.8.1, SVG Export Plug-In . SVG Version: 2.1.1 Build 2)  -->
  <defs>
    <style>
      .st0 {
        fill: #a6ce39;
      }

      .st1 {
        fill: #fff;
      }
    </style>
  </defs>
  <path class="st0" d="M36.86,8.23c-3.41,0-6.19,2.78-6.19,6.19v6.37h3.05v-6.37c0-1.2.68-2.25,1.67-2.77.44-.23,1.4-1.34,1.47-3.42Z"/>
  <path class="st0" d="M43.05,8.23c-3.41,0-6.19,2.78-6.19,6.19v6.37h3.05v-6.37c0-1.2.68-2.25,1.67-2.77.44-.23,1.4-1.34,1.47-3.42Z"/>
  <path class="st0" d="M64.95,20.79c-3.51,0-6.36-2.85-6.36-6.36s2.85-6.36,6.36-6.36,6.36,2.85,6.36,6.36-2.85,6.36-6.36,6.36ZM64.95,10.95c-1.92,0-3.48,1.56-3.48,3.48s1.56,3.48,3.48,3.48,3.48-1.56,3.48-3.48-1.56-3.48-3.48-3.48Z"/>
  <path class="st1" d="M89.29,3.26l-.49.31c-.1.07-2.56,1.63-2.56,4.39v6.8c0,3.41,2.78,6.19,6.19,6.19s6.19-2.78,6.19-6.19-2.78-6.19-6.19-6.19c-.73,0-1.45.13-2.13.38l-.33.12.15.32c.03.05.65,1.34,2.74,2.25,1.82.79,2.71,1.82,2.71,3.12,0,1.73-1.41,3.14-3.14,3.14s-3.14-1.41-3.14-3.14V3.26h0Z"/>
  <path class="st1" d="M105.86,8.23c-3.41,0-6.19,2.78-6.19,6.19v6.37h3.05v-6.37c0-1.2.68-2.25,1.67-2.77.44-.23,1.4-1.34,1.47-3.42Z"/>
  <path class="st1" d="M112.07,20.79c-3.51,0-6.36-2.85-6.36-6.36s2.85-6.36,6.36-6.36,6.36,2.85,6.36,6.36-2.85,6.36-6.36,6.36ZM112.07,10.95c-1.92,0-3.48,1.56-3.48,3.48s1.56,3.48,3.48,3.48,3.48-1.56,3.48-3.48-1.56-3.48-3.48-3.48Z"/>
  <path class="st1" d="M125.31,20.79c-3.51,0-6.36-2.85-6.36-6.36s2.85-6.36,6.36-6.36,6.36,2.85,6.36,6.36-2.85,6.36-6.36,6.36ZM125.31,10.95c-1.92,0-3.48,1.56-3.48,3.48s1.56,3.48,3.48,3.48,3.48-1.56,3.48-3.48-1.56-3.48-3.48-3.48Z"/>
  <path class="st1" d="M144.19,12.48c.09-1.48-.54-2.82-1.75-3.7-1.39-1.01-3.26-1.2-5.02-.5-.51.2-1.03.49-1.52.86V2.75l-.49.31c-.1.07-2.56,1.63-2.56,4.39v12.91h3.05v-5.28h0c0-2.12,1.62-3.55,2.63-3.96.92-.36,1.69-.17,2.1.13.24.18.53.5.5,1.04-.03.52-.67.99-1.62,1.18-1.94.4-2.49,1.57-2.64,2.22-.29,1.27.42,2.73,1.59,4.17,1.19,1.47,5.22.86,4.77.47-1.95-1.7-3.1-3.14-3.33-3.8.06-.02.14-.04.23-.06,2.37-.49,3.92-2.02,4.04-3.98Z"/>
  <path class="st1" d="M148.11,20.79c-.92,0-1.97-.13-3.18-.43l.74-2.96c4.59,1.15,5.21-.84,5.42-1.49.17-.53.04-1.12-.35-1.58-.5-.59-1.34-.85-2.35-.7-.95.13-2.54.46-2.99.1-.07-.86.19-2.36,1.53-3.98.46-.55,1.11-1.19,2.03-1.92l.91-.72,1.89,2.39-.91.72c-.2.16-.39.32-.57.48,1.11.25,2.06.82,2.78,1.66,1.07,1.26,1.42,2.92.93,4.46-.42,1.33-1.76,3.98-5.9,3.98Z"/>
  <path class="st0" d="M52.03,20.79c-.92,0-1.97-.13-3.18-.43l.74-2.96c4.59,1.15,5.21-.84,5.42-1.49.17-.53.04-1.12-.35-1.58-.5-.59-1.34-.85-2.35-.7-.95.13-2.54.46-2.99.1-.07-.86.19-2.36,1.53-3.98.46-.55,1.11-1.19,2.03-1.92l.91-.72,1.89,2.39-.91.72c-.2.16-.39.32-.57.48,1.11.25,2.06.82,2.78,1.66,1.07,1.26,1.42,2.92.93,4.46-.42,1.33-1.76,3.98-5.9,3.98Z"/>
  <path class="st0" d="M44.43,7.57c-.16.54-.24,1.11-.24,1.7v11.44h3.05v-11.44c0-.63.19-1.21.51-1.7h-3.31Z"/>
  <path class="st0" d="M44.66,6.6c.62-1.65,2.49-2.63,4.18-2.72,0,0,.13.53-.76,1.69s-2.31,1.02-3.43,1.02Z"/>
  <path class="st0" d="M16.09,21.05c0-.1.02-.19.02-.29h-.02v-6.33c0-3.41-2.78-6.19-6.19-6.19s-6.19,2.78-6.19,6.19,2.78,6.19,6.19,6.19c.73,0,1.45-.13,2.13-.38l.33-.12-.15-.32c-.03-.05-.65-1.34-2.74-2.25-1.82-.79-2.71-1.82-2.71-3.12,0-1.73,1.41-3.14,3.14-3.14s3.14,1.41,3.14,3.14v6.5c-.03.5-.24,1.58-1.35,2.36-1.5,1.06-3,2.07-3,2.07l1.72,2.54s1.53-1.03,3.05-2.11c.54-.38,1-.84,1.39-1.35.63-.74,1.25-1.83,1.25-3.21v-.18Z"/>
  <path class="st0" d="M78.73,8.26c-3.46,0-6.27,2.78-6.35,6.21h0v6.32h2.88v-6.32h.01c.08-1.85,1.6-3.34,3.46-3.34s3.39,1.48,3.46,3.34h.02v3.71c0,2.31,2.86,2.61,2.86,2.61v-6.32h0c-.08-3.44-2.89-6.21-6.35-6.21Z"/>
  <path class="st0" d="M23.01,20.79c.73,0,1.45-.13,2.13-.38l.33-.12-.15-.32c-.03-.05-.65-1.34-2.74-2.25-1.82-.79-2.71-1.82-2.71-3.12,0-1.73,1.41-3.14,3.14-3.14s3.14,1.41,3.14,3.14v6.01h3.05v-6.01c0-3.41-2.78-6.19-6.19-6.19s-6.19,2.78-6.19,6.19,2.78,6.19,6.19,6.19Z"/>
</svg>